<svg xmlns="http://www.w3.org/2000/svg" viewBox="-53.46 15.45 431.52 431.52" fill="currentColor">
  <svg x="-53.46" y="15.45" width="431.52" height="158.55"
       viewBox="-53.46 15.45 431.52 158.55" overflow="hidden">
    <path d="M452.576,319.17h-31.321c0.47-1.212,0.918-2.433,1.344-3.665c0.051-0.156,0.128-0.295,0.166-0.453  c3.621-10.64,5.676-21.996,5.676-33.844c0-11.846-2.054-23.202-5.674-33.84c-0.046-0.19-0.135-0.356-0.199-0.542  c-4.44-12.815-11.256-24.503-19.967-34.546c-0.097-0.105-0.18-0.213-0.283-0.311c-19.341-22.125-47.684-36.19-79.307-36.19  c-58.129,0-105.429,47.3-105.429,105.429c0,13.394,2.609,26.164,7.186,37.962H65.539V165.92c9.228,5.325,24.572,11.5,46.867,11.5  c14.752,0,32.458-2.7,53.267-10.158c67.109-24.06,88.335-11.754,98.463-0.447c1.7,1.909,4.415,2.551,6.727,1.641  c2.372-0.91,3.938-3.177,3.938-5.713V45.767c0-1.507-0.552-2.953-1.566-4.072c-20.078-22.509-54.549-23.404-111.679-2.924  c-19.643,7.041-36.018,9.446-49.49,9.405c-0.116-0.007-0.213-0.067-0.331-0.067c-0.136,0-0.25,0.069-0.383,0.077  C79.634,47.883,64.627,33.67,63.749,32.804c-2.372-2.372-6.22-2.372-8.622-0.03c-1.386,1.37-1.882,3.228-1.681,5.027  c-0.028,0.236-0.139,0.443-0.139,0.686v286.798c0,0.073,0.039,0.133,0.042,0.206c0.007,0.177,0.081,0.333,0.103,0.508  c0.104,0.847,0.366,1.617,0.781,2.321c0.072,0.124,0.052,0.276,0.133,0.395l105.996,156.518c1.178,1.745,3.103,2.685,5.057,2.685  c1.178,0,2.372-0.343,3.431-1.059c2.789-1.894,3.52-5.683,1.626-8.487l-18.81-27.773c68.159-3.751,124.951-29.948,145.6-67.275  c8.256,2.085,16.85,3.312,25.745,3.312c31.642,0,60-14.082,79.342-36.229c0.076-0.074,0.137-0.152,0.209-0.229  c5.006-5.767,9.468-12.019,13.142-18.777h36.871c3.371,0,6.116-2.745,6.116-6.116S455.947,319.17,452.576,319.17z "/>
  </svg>
  <g fill="none" stroke="currentColor" stroke-width="18" stroke-linecap="round">
    <path d="M59 162V330"/>
    <path d="M59 330H157.3"/>
    <path d="M59 330L131.8 429.4"/>
  </g>
</svg>
